<?xml version="1.0" encoding="UTF-8" standalone="no"?>
<svg
   width="128"
   height="128"
   viewBox="0 0 33.866666 33.866666"
   version="1.1"
   id="svg8"
   inkscape:version="1.3 (0e150ed6c4, 2023-07-21)"
   sodipodi:docname="dl-dicom.svg"
   xmlns:inkscape="http://www.inkscape.org/namespaces/inkscape"
   xmlns:sodipodi="http://sodipodi.sourceforge.net/DTD/sodipodi-0.dtd"
   xmlns="http://www.w3.org/2000/svg"
   xmlns:svg="http://www.w3.org/2000/svg"
   xmlns:rdf="http://www.w3.org/1999/02/22-rdf-syntax-ns#"
   xmlns:cc="http://creativecommons.org/ns#"
   xmlns:dc="http://purl.org/dc/elements/1.1/">
  <defs
     id="defs2" />
  <sodipodi:namedview
     id="base"
     pagecolor="#ffffff"
     bordercolor="#666666"
     borderopacity="1.0"
     inkscape:pageopacity="0.0"
     inkscape:pageshadow="2"
     inkscape:zoom="4"
     inkscape:cx="55.5"
     inkscape:cy="89.375"
     inkscape:document-units="mm"
     inkscape:current-layer="layer1"
     inkscape:document-rotation="0"
     showgrid="false"
     inkscape:window-width="1920"
     inkscape:window-height="1019"
     inkscape:window-x="0"
     inkscape:window-y="0"
     inkscape:window-maximized="1"
     inkscape:showpageshadow="2"
     inkscape:pagecheckerboard="0"
     inkscape:deskcolor="#d1d1d1" />
  <metadata
     id="metadata5">
    <rdf:RDF>
      <cc:Work
         rdf:about="">
        <dc:format>image/svg+xml</dc:format>
        <dc:type
           rdf:resource="http://purl.org/dc/dcmitype/StillImage" />
      </cc:Work>
    </rdf:RDF>
  </metadata>
  <g
     inkscape:label="Layer 1"
     inkscape:groupmode="layer"
     id="layer1">
    <rect
       style="fill:none;stroke:none;stroke-width:0.352777;stroke-linecap:round;stroke-linejoin:round"
       id="rect871"
       width="160.2619"
       height="160.2619"
       x="29.482145"
       y="52.538689"
       inkscape:export-xdpi="20.286793"
       inkscape:export-ydpi="20.286793" />
    <g
       id="g1"
       transform="translate(3.159011)">
      <path
         style="fill:#808080;stroke-width:0.0588159"
         d="m 9.6581206,33.719362 c 0,-0.06655 0.025706,-0.231968 0.057126,-0.3676 0.5254864,-2.268544 0.6089654,-2.729838 0.6140624,-3.393258 0.0063,-0.825257 -0.06682,-1.006095 -0.4811736,-1.189385 -0.22871,-0.101168 -0.3480654,-0.115032 -0.7475676,-0.08684 -0.261474,0.01845 -0.6697747,0.08741 -0.9073362,0.153245 -0.7029791,0.194804 -1.7152615,0.266881 -2.8580808,0.2035 C 4.431707,28.988921 4.3012635,28.96786 3.9825571,28.820665 3.5511575,28.62142 3.4118932,28.497559 3.1242061,28.057252 2.8283629,27.604463 2.691715,27.00743 2.7411226,26.383516 2.8391954,25.145051 2.84646,24.78835 2.7778416,24.580431 2.7386263,24.461614 2.5382571,24.189814 2.3288761,23.971413 1.7627427,23.380889 1.7008576,22.974842 2.0658683,22.245721 L 2.253302,21.871314 2.0297474,21.673245 C 1.906793,21.564307 1.7310588,21.407657 1.6392237,21.325136 1.2882954,21.009788 1.2640473,20.534061 1.5709298,19.9853 1.684152,19.782843 1.7767874,19.603712 1.7767874,19.587231 c 0,-0.01647 -0.2051218,-0.127734 -0.4558233,-0.247229 C 1.0702604,19.220504 0.72557647,19.05625 0.55500175,18.974987 0.16566289,18.789509 -0.00151736,18.561246 -0.03362141,18.171301 -0.06977348,17.73219 0.10525828,17.306943 0.60782605,16.612872 0.84639458,16.283395 1.0812885,15.954441 1.1298114,15.881859 c 0.078308,-0.117135 0.3606337,-0.496975 0.488103,-0.656691 0.4542894,-0.569223 1.2826659,-1.81611 1.3283589,-1.999469 0.034987,-0.140403 0.044642,-0.644435 0.023895,-1.247486 -0.022425,-0.651835 -0.00887,-1.237828 0.038082,-1.646847 0.6070493,-5.28769 5.0659578,-9.51153602 10.7351667,-10.16923046 0.992142,-0.11509998 2.753791,-0.08441907 3.618773,0.0630246 1.790037,0.30512674 3.379877,0.90167656 4.81855,1.80804796 3.023516,1.9048295 4.979954,4.9251504 5.361326,8.2767399 0.08651,0.760236 0.04249,2.253472 -0.08767,2.974241 -0.102887,0.569739 -0.523448,2.122544 -0.653115,2.411452 -0.04356,0.09705 -0.147714,0.342734 -0.23146,0.545971 -0.664179,1.611832 -1.278118,2.7347 -2.432692,4.44929 -0.368796,0.547676 -0.722924,1.116719 -0.786949,1.264542 -0.48105,1.110626 -0.812849,2.476656 -0.90101,3.709498 -0.07474,1.04514 0.138235,3.687529 0.419536,5.205209 0.115074,0.620856 0.493529,2.884854 0.493529,2.952399 0,0.0098 -3.083425,0.01781 -6.852056,0.01781 H 9.6581206 Z"
         id="path851"
         inkscape:export-xdpi="20.286793"
         inkscape:export-ydpi="20.286793" />
      <path
         style="fill:#ececec;stroke-width:0.0588159"
         d="m 17.031118,32.752404 c -0.514854,-0.06538 -0.741194,-0.06828 -1.10835,-0.01418 -0.474094,0.06984 -1.536402,0.03936 -2.273566,-0.06523 -0.572437,-0.08122 -0.560331,-0.05512 -0.667447,-1.439353 -0.0087,-0.111933 0.03236,-0.11513 1.343831,-0.104642 1.261595,0.01009 1.35908,0.01854 1.446441,0.125248 0.137715,0.168237 1.986398,0.71951 2.700083,0.805158 0.414605,0.04976 0.50474,0.09371 0.749359,0.365415 0.137184,0.152376 0.24967,0.293432 0.249968,0.313461 0.002,0.129976 -1.461399,0.138455 -2.440319,0.01414 z m -0.437004,-1.885783 c -0.536025,-0.06764 -0.699602,-0.0702 -0.807151,-0.01265 -0.210202,0.112496 -2.24061,0.03625 -2.491648,-0.09357 -0.103621,-0.05358 -0.170694,-0.06877 -0.149049,-0.03375 0.05327,0.0862 -0.03999,0.08053 -0.161961,-0.0098 -0.110848,-0.08214 -0.202812,-0.523729 -0.229294,-1.10101 l -0.01745,-0.380516 1.352767,0.01745 c 1.227821,0.01585 1.360915,0.02741 1.44099,0.125237 0.146656,0.179169 1.756718,0.659245 2.76435,0.824251 0.465758,0.07627 0.612182,0.146587 0.564422,0.271046 -0.01612,0.04201 0.0024,0.06417 0.04144,0.04972 0.03879,-0.01434 0.128374,0.06343 0.199077,0.172849 l 0.128554,0.198935 -0.180018,0.036 c -0.310465,0.06209 -1.753347,0.02439 -2.455019,-0.06416 z m 0.437004,-1.819045 c -0.129394,-0.01009 -0.531902,-0.04975 -0.894461,-0.08812 -0.465455,-0.04926 -0.681536,-0.05143 -0.735201,-0.0074 -0.103296,0.08478 -1.545569,0.0938 -2.134557,0.01334 -0.312035,-0.04262 -0.495899,-0.09741 -0.545845,-0.162661 -0.05327,-0.06959 -0.07049,-0.288078 -0.05882,-0.746366 l 0.0165,-0.647979 1.279247,-0.01585 c 1.084302,-0.01345 1.279247,-0.0029 1.279247,0.06924 0,0.104882 0.690548,0.377749 1.499807,0.59264 0.722697,0.191909 0.69605,0.186025 1.076335,0.237615 0.345313,0.04685 0.432111,0.11078 0.601703,0.44321 l 0.115547,0.226489 -0.191001,0.02913 c -0.292505,0.04461 -1.045307,0.07722 -1.308506,0.05668 z M 4.7385886,27.091905 C 3.9714769,26.734319 3.529316,25.670164 3.6977322,24.586862 c 0.063643,-0.409367 0.059838,-0.4539 -0.055518,-0.649414 -0.1521486,-0.257871 -0.1298789,-0.72566 0.043677,-0.917438 0.2383329,-0.263354 0.3211338,-0.27444 2.2115138,-0.296143 1.2315022,-0.01414 1.8265182,-0.04173 1.8715754,-0.08679 0.048868,-0.04887 0.026674,-0.07595 -0.085288,-0.104048 -0.1424887,-0.03576 -0.1513465,-0.05961 -0.1513465,-0.407405 0,-0.428045 0.057782,-0.510579 0.3574575,-0.510579 0.2779693,0 0.3497288,0.09279 0.3327111,0.430201 -0.00766,0.151893 0.012344,0.273594 0.045031,0.273936 0.032349,4.45e-4 0.061306,-0.114878 0.06435,-0.256036 0.00767,-0.355657 0.054681,-0.448101 0.2278841,-0.448101 0.1790393,0 0.1776384,-0.01892 0.027051,0.365422 C 8.4545277,22.318149 8.191884,22.76083 7.9320204,23.08414 7.8415944,23.196644 7.76761,23.332356 7.76761,23.385723 c 0,0.134656 0.1496424,0.245553 0.276553,0.204948 0.095976,-0.03071 0.6034092,-0.792429 0.7675591,-1.152202 0.2828193,-0.619867 0.4780765,-1.267388 0.6384847,-2.117374 0.082091,-0.434992 0.1035619,-0.823613 0.096937,-1.754552 -0.00468,-0.657691 0.014863,-1.257278 0.04343,-1.332416 0.064307,-0.169139 0.2880061,-0.383172 0.4004788,-0.383172 0.046139,0 0.2885904,0.199206 0.5387824,0.442678 0.487972,0.47487 0.694118,0.574448 1.031627,0.498327 0.259291,-0.05848 0.388283,-0.16837 0.535333,-0.456055 0.624631,-1.222023 0.946626,-1.541221 1.455218,-1.442581 0.261623,0.05074 0.605774,0.425426 0.654239,0.712284 0.03749,0.221905 -0.0431,0.636502 -0.139156,0.715875 -0.154053,0.127298 -0.378319,0.790593 -0.586642,1.73507 -0.169646,0.769128 -0.409072,2.503371 -0.507499,3.675996 -0.05036,0.59998 -0.150908,1.117502 -0.217114,1.117502 -0.03005,0 -0.04067,0.02259 -0.0236,0.05021 0.05197,0.0841 -0.285635,0.56111 -0.539347,0.762052 -0.319967,0.253421 -0.588614,0.358585 -1.029021,0.402819 -0.201983,0.0203 -0.486343,0.08867 -0.631913,0.151962 -0.145569,0.06329 -0.317606,0.138175 -0.382304,0.166409 -0.0647,0.02823 -0.2632006,0.1062 -0.4411189,0.17326 -0.1779181,0.06706 -0.4028892,0.157688 -0.4999354,0.201394 -0.097046,0.04371 -0.3875189,0.163186 -0.6454948,0.265513 C 8.3051291,26.125998 8.0139904,26.244502 7.9161295,26.287012 7.7428177,26.362297 7.412378,26.49798 6.3266189,26.939681 5.6670629,27.208 5.1035237,27.262018 4.7385886,27.091905 Z m 11.8341584,0.0248 c -0.446195,-0.04184 -0.826709,-0.09153 -0.845584,-0.110399 -0.01887,-0.01887 -0.109048,0.0043 -0.200387,0.05156 -0.280583,0.145097 -2.652579,0.09509 -2.806842,-0.05918 -0.04251,-0.04251 0.09391,-1.168655 0.163851,-1.352621 0.05029,-0.13228 0.05727,-0.133 1.320076,-0.136385 1.159936,-0.0031 1.274361,0.0056 1.325651,0.101482 0.09264,0.173096 2.088237,0.765265 2.589703,0.768461 0.256299,0.0016 0.286522,0.02311 0.514705,0.365647 l 0.185128,0.27791 -0.217581,0.05611 c -0.388592,0.100204 -1.199694,0.115163 -2.02872,0.03742 z m 1.811138,-0.561121 c -0.01998,-0.03235 -0.06787,-0.05841 -0.1064,-0.05792 -0.04209,4.45e-4 -0.03483,0.02366 0.01818,0.05792 0.112991,0.07302 0.133354,0.07302 0.08822,0 z m -4.779693,-1.350909 c -0.532518,-0.06079 -0.601966,-0.08738 -0.601966,-0.230523 0,-0.116152 0.154027,-0.78542 0.218096,-0.947652 0.01916,-0.04852 0.04441,-0.141158 0.0561,-0.205856 0.04893,-0.270777 0.0195,-0.264672 1.275724,-0.264672 1.115632,0 1.202715,0.0076 1.228961,0.10802 0.02447,0.09359 0.336724,0.241972 0.691447,0.328576 0.04862,0.01187 0.251268,0.07505 0.450321,0.140396 0.199053,0.06534 0.582299,0.163759 0.851658,0.218698 0.690564,0.140849 0.735688,0.165184 0.875523,0.47214 0.06836,0.150059 0.115794,0.281329 0.105411,0.291712 -0.01038,0.01038 -0.243806,0.04998 -0.518716,0.08799 -0.495163,0.06846 -0.788285,0.05762 -1.894721,-0.07008 -0.454452,-0.05245 -0.589995,-0.05057 -0.661992,0.0092 -0.111802,0.09279 -1.454924,0.132949 -2.075844,0.06207 z m 4.015087,-1.894972 c -0.388185,-0.02399 -0.922186,-0.07942 -1.186667,-0.123166 -0.424964,-0.07029 -0.500187,-0.06882 -0.646976,0.0126 -0.130953,0.07265 -0.360805,0.09215 -1.086276,0.09215 -0.837447,0 -0.931914,-0.01058 -1.050733,-0.117632 -0.227209,-0.204718 -0.24566,-0.349279 -0.115101,-0.901875 0.06624,-0.280338 0.136092,-0.549408 0.155236,-0.597931 0.01914,-0.04852 0.04276,-0.141158 0.05248,-0.205857 0.01845,-0.122772 0.129721,-0.628883 0.304886,-1.386679 0.158877,-0.687331 0.170637,-0.697399 0.897019,-0.767778 1.124167,-0.108921 1.111794,-0.112367 1.160879,0.323114 0.02841,0.252085 0.03871,0.265129 0.18596,0.235677 0.152228,-0.03045 0.186306,-0.01156 0.865849,0.479762 0.327742,0.236966 0.796457,0.340432 1.529017,0.337526 0.391975,-0.0016 0.739178,0.01414 0.771562,0.03488 0.03238,0.02074 0.113538,0.151517 0.180344,0.290619 l 0.121468,0.252911 -0.128421,0.04864 c -0.07063,0.02676 -0.421941,0.06775 -0.780685,0.09109 -0.943946,0.06143 -1.367241,-0.0614 -2.112085,-0.612878 -0.129397,-0.0958 -0.314665,-0.18205 -0.411713,-0.191658 l -0.176448,-0.01747 v 0.526807 0.526807 L 16.59,21.780252 c 0.856764,0.273625 1.645829,0.471284 2.164156,0.542114 l 0.524392,0.07166 0.214347,0.396851 c 0.117893,0.218266 0.21435,0.411275 0.21435,0.428907 0,0.02832 -0.417622,0.07142 -1.146912,0.118384 -0.129394,0.0083 -0.552869,-0.0045 -0.941054,-0.02848 z M 3.8158338,22.541397 c -0.1158653,-0.09218 -0.1886874,-0.680311 -0.097797,-0.789826 0.093169,-0.112261 0.4991644,-0.100818 0.5437326,0.01532 0.019629,0.05117 0.035701,0.246842 0.035701,0.434827 0,0.257413 -0.022968,0.350606 -0.093036,0.377493 -0.1459532,0.05601 -0.2880517,0.04218 -0.3886009,-0.03782 z m 0.6623456,-0.0096 c -0.041474,-0.04997 -0.061925,-0.231653 -0.051315,-0.455826 l 0.01765,-0.372733 h 0.2940804 0.2940804 l 0.01785,0.380789 c 0.014449,0.308001 -0.00178,0.395134 -0.084762,0.455823 -0.1364922,0.09981 -0.401703,0.09542 -0.4875806,-0.008 z M 5.21892,22.5169 C 5.197357,22.49534 5.179709,22.310567 5.179709,22.10631 c 0,-0.342059 0.011048,-0.374154 0.1399312,-0.406502 0.076964,-0.01932 0.2159165,-0.02644 0.3087853,-0.01583 0.1667623,0.01905 0.1690631,0.02457 0.186131,0.445713 l 0.017272,0.426416 h -0.286853 c -0.1577704,0 -0.3044994,-0.01765 -0.3260644,-0.03921 z m 0.8261336,0.0027 c -0.023057,-0.02306 -0.041923,-0.224163 -0.041923,-0.446904 v -0.404982 l 0.3087838,0.01778 0.3087837,0.01778 v 0.411711 0.411711 l -0.2668615,0.01743 c -0.1467739,0.0096 -0.2857267,-0.0016 -0.3087835,-0.02451 z m 0.764607,0 c -0.023057,-0.02306 -0.041922,-0.222276 -0.041922,-0.44271 0,-0.369063 0.010475,-0.402754 0.1323357,-0.425622 0.4430577,-0.08314 0.5266509,4.45e-4 0.5028752,0.50269 l -0.017644,0.372734 -0.2668613,0.01743 c -0.1467741,0.0096 -0.2857267,-0.0016 -0.3087837,-0.02451 z M 3.6797951,21.497253 c -0.020051,-0.03244 -0.020162,-0.18463 -2.223e-4,-0.338193 0.07121,-0.54927 0.067985,-0.543872 0.3249752,-0.543872 0.1287785,0 0.237008,0.01985 0.2405091,0.04411 0.031442,0.217844 0.042921,0.658066 0.01994,0.764609 -0.02437,0.112982 -0.066582,0.132335 -0.2886252,0.132335 -0.1430433,0 -0.2764856,-0.02655 -0.2965368,-0.05899 z m 0.8058846,-0.01158 c -0.1108126,-0.110813 -0.092524,-0.790653 0.022456,-0.834775 0.1839792,-0.0706 0.4817897,-0.03765 0.5182396,0.05733 0.068676,0.178966 0.037075,0.6786 -0.048323,0.763997 -0.1022674,0.10227 -0.3955409,0.110277 -0.4923732,0.01345 z m 0.7537383,-0.01087 c -0.03284,-0.03284 -0.059709,-0.22467 -0.059709,-0.426289 0,-0.410045 0.041392,-0.450059 0.4379373,-0.423354 l 0.2136981,0.01438 -0.017028,0.414239 -0.017028,0.414236 -0.249072,0.03324 c -0.1378682,0.01841 -0.275732,0.0066 -0.3087831,-0.02647 z m 0.802924,-0.01658 C 6.020777,21.436663 6.003131,21.241099 6.003131,21.023649 v -0.395363 l 0.1979606,-0.03714 c 0.2569244,-0.0482 0.3886226,0.0058 0.3966468,0.162676 0.00355,0.06932 0.015183,0.218678 0.025858,0.331898 0.033007,0.350066 -0.010586,0.411713 -0.2911383,0.411713 -0.1379981,0 -0.2685508,-0.01765 -0.2901161,-0.03921 z m 0.7499308,-0.0405 c -0.016823,-0.04384 -0.02261,-0.248963 -0.012858,-0.455823 0.017235,-0.365598 0.022451,-0.376648 0.1865816,-0.395405 0.092868,-0.0106 0.2318207,-0.0035 0.3087837,0.01583 0.1303896,0.03272 0.1399332,0.06269 0.1399332,0.439418 0,0.445629 -0.024588,0.475701 -0.3889599,0.475701 -0.1164655,0 -0.2159214,-0.03396 -0.233481,-0.07972 z m 0.7992286,-0.03728 c -0.032536,-0.06079 -0.059156,-0.257337 -0.059156,-0.436766 0,-0.294514 0.013607,-0.329648 0.1399332,-0.361354 0.076963,-0.01932 0.2159156,-0.02644 0.3087837,-0.01583 0.161455,0.01845 0.1706925,0.036 0.2109104,0.400711 0.023395,0.212155 0.018502,0.404971 -0.011024,0.434498 -0.029197,0.0292 -0.1604562,0.06123 -0.2916882,0.07118 -0.1851161,0.01403 -0.2518639,-0.0067 -0.2977585,-0.09244 z m 0.7836322,0.0074 C 8.3424549,21.33489 8.3279103,21.126154 8.342812,20.923975 l 0.027095,-0.3676 h 0.2888568 c 0.20945,0 0.2986949,0.02564 0.3246473,0.09327 0.053988,0.140691 -0.1701872,0.788136 -0.274735,0.793469 -0.04853,0.0025 -0.1300608,0.01272 -0.1811807,0.02274 -0.05112,0.01002 -0.1196822,-0.02508 -0.1523616,-0.07802 z M 3.8428029,20.410406 C 3.4919902,20.257813 3.4156981,20.039227 3.4154513,19.185984 3.415229,18.240748 3.4545644,18.150741 3.9764275,17.904174 4.4410803,17.684636 4.6300768,17.452852 4.7138203,16.999843 4.8295945,16.373561 4.7254464,16.155057 3.7132107,14.900725 3.5654947,14.717681 3.3858392,14.492711 3.313973,14.400791 3.1244253,14.15835 3.0896648,13.814546 3.214622,13.418136 c 0.057453,-0.182261 0.126091,-0.331384 0.1525332,-0.331384 0.026442,0 0.048076,-0.02728 0.048076,-0.06062 0,-0.03334 0.104526,-0.245077 0.2322798,-0.470528 0.1277538,-0.225449 0.2228633,-0.409906 0.2113528,-0.409906 -0.011515,0 0.097968,-0.218355 0.2432834,-0.485233 C 4.3472824,11.210266 4.3610359,11.162497 4.2926286,10.998786 4.1830053,10.736441 4.155774,10.123416 4.2464798,9.9598929 4.2884049,9.8843099 4.3248949,9.8092337 4.3275669,9.7930595 4.3322796,9.7645255 4.4029187,9.6262993 4.8522821,8.7662625 4.9711551,8.5387487 5.1057556,8.1600557 5.1554033,7.9134311 5.3579486,6.907291 5.9322775,5.5577183 6.4500848,4.8711489 6.5277476,4.7681738 6.5912906,4.6541262 6.5912906,4.6177098 c 0,-0.036416 0.026467,-0.049854 0.058816,-0.029861 0.032349,0.019993 0.058816,0.00464 0.058816,-0.034118 0,-0.08026 0.5780019,-0.7593844 0.8720084,-1.0245689 C 7.6885253,3.4321158 7.8697267,3.267409 7.9836018,3.1631471 8.4093286,2.7733575 9.3768242,2.2196006 10.208471,1.889718 10.524391,1.7644042 11.19314,1.59486 11.94354,1.4498354 c 0.597536,-0.1154817 0.731978,-0.1345382 1.61744,-0.2292652 0.697466,-0.074615 3.881729,-0.051068 4.528825,0.03349 1.357984,0.1774523 2.389538,0.4171535 3.142591,0.730242 0.507236,0.2108877 1.376869,0.6747475 1.592092,0.8492184 0.04852,0.039335 0.247027,0.189922 0.44112,0.3346375 0.366845,0.2735186 1.062542,0.9685195 1.482771,1.4812878 0.521758,0.6366525 1.366196,2.1835316 1.273694,2.3332057 -0.02183,0.035328 -0.01374,0.048196 0.01796,0.028593 0.07094,-0.043844 0.453229,1.1687415 0.406698,1.2900042 -0.01858,0.048445 -0.0076,0.070566 0.02501,0.050403 0.03198,-0.019762 0.06228,0.025177 0.06735,0.099871 0.02612,0.385382 0.03485,0.4536203 0.06954,0.5440216 0.02072,0.05396 0.07855,0.7589142 0.128545,1.5665666 0.06932,1.119936 0.07639,1.609779 0.02979,2.063924 -0.08667,0.844569 -0.176063,1.369357 -0.236925,1.390867 -0.0288,0.01018 -0.03816,0.05551 -0.02081,0.10074 0.03536,0.09215 -0.135525,0.659171 -0.237102,0.786738 -0.03615,0.04541 -0.05707,0.09834 -0.04647,0.117633 0.0402,0.07318 -0.127769,0.470599 -0.184163,0.435748 -0.03312,-0.02047 -0.041,-0.0072 -0.01792,0.03014 0.03851,0.06231 -0.483375,1.104287 -0.632105,1.262044 -0.03714,0.03939 -0.13687,0.17749 -0.221623,0.306884 -0.08476,0.129397 -0.236472,0.327901 -0.33715,0.441121 -0.100676,0.11322 -0.18347,0.228539 -0.183988,0.256261 -4.45e-4,0.02772 -0.04201,0.03464 -0.09222,0.01538 -0.0502,-0.01927 -0.07711,-0.01209 -0.05979,0.01592 0.104033,0.168327 -1.680183,1.590404 -1.892965,1.508752 -0.0437,-0.01676 -0.06592,-0.0086 -0.04938,0.01816 0.02571,0.04161 -0.403002,0.326804 -0.44877,0.298539 -0.009,-0.0055 -0.135414,0.04541 -0.280983,0.113227 -0.715501,0.333322 -2.13333,0.569517 -3.163838,0.527058 -0.525431,-0.02165 -0.686065,-0.05194 -0.958245,-0.180702 -0.376708,-0.178211 -0.746715,-0.552834 -0.958168,-0.970113 -0.22985,-0.453587 -0.311507,-0.484989 -1.261175,-0.484989 -0.449274,0 -0.979753,-0.01703 -1.178842,-0.03783 l -0.361981,-0.03783 0.02253,-0.182726 c 0.03482,-0.282356 0.105084,-0.526829 0.179296,-0.623846 0.250786,-0.327849 0.356977,-0.629839 0.354234,-1.007365 -0.0036,-0.489972 -0.143528,-0.738217 -0.576002,-1.021585 -0.247296,-0.162034 -0.767042,-0.146234 -1.078077,0.03278 -0.262155,0.150877 -0.735948,0.791324 -0.988211,1.335806 -0.152236,0.328588 -0.373996,0.513416 -0.54926,0.457788 -0.06219,-0.01974 -0.240568,-0.187351 -0.396394,-0.372475 -0.558957,-0.664046 -0.885204,-0.809686 -1.2692706,-0.566616 -0.3668616,0.232182 -0.4032111,0.388314 -0.4032111,1.731941 0,1.281218 -0.075076,1.911902 -0.2379674,1.99908 -0.1017415,0.05445 -1.1078938,0.09487 -3.5556603,0.14283 -1.1300128,0.02214 -1.4494794,0.01118 -1.6015769,-0.05498 z M 6.895443,15.400865 c 0.059158,-0.05354 0.107559,-0.121156 0.107559,-0.150266 0,-0.02911 0.055727,-0.177195 0.1238394,-0.329076 C 7.7168641,13.605834 7.7737373,13.445859 7.774663,13.09929 7.7757967,12.675257 7.6541356,12.38414 7.3923524,12.184467 7.2795728,12.098447 7.167388,12.028066 7.1430528,12.028066 c -0.024335,0 -0.098886,-0.04927 -0.165668,-0.109488 -0.2653399,-0.23926 -1.2022524,-0.831567 -1.3153724,-0.831567 -0.2395,0 -0.2718619,0.303204 -0.1863067,1.74551 0.06606,1.113645 0.095985,1.345144 0.1996378,1.544404 0.1661866,0.319469 0.932656,1.108295 1.0877638,1.119492 0.013627,8.89e-4 0.073178,-0.04201 0.1323357,-0.09555 z"
         id="path849"
         inkscape:export-xdpi="20.286793"
         inkscape:export-ydpi="20.286793" />
    </g>
    <path
       style="fill:#000000;stroke-width:0.114126"
       d="M 5.3769449,32.650619 C 5.1723704,32.52589 4.9029418,32.25646 4.7782088,32.051886 4.5631101,31.699086 4.551406,31.46984 4.5510016,27.59993 l -3.334e-4,-4.079997 h 1.7118901 1.7118868 v 2.967268 2.967277 h 8.9588879 8.958884 v -2.967277 -2.967268 h 1.711892 1.711889 v 4.091655 c 0,4.063872 -0.0018,4.094289 -0.259056,4.479446 -0.559855,0.838049 0.232176,0.786894 -12.18067,0.786621 C 5.9741274,32.877432 5.7414659,32.872831 5.3770396,32.650619 Z M 14.527254,20.47376 c -1.239203,-1.494452 -2.450202,-2.955424 -2.691109,-3.246594 -0.718096,-0.867928 -0.682158,-0.897167 1.102688,-0.897167 h 1.540701 v -4.436943 c 0,-3.6307862 0.02858,-4.4606535 0.157316,-4.5674931 0.109344,-0.09075 0.848833,-0.1211058 2.425173,-0.099569 l 2.267861,0.030979 0.02983,4.4190741 0.02983,4.419075 1.509421,0.03182 c 1.323609,0.02791 1.514073,0.05607 1.547193,0.228761 0.02228,0.116192 -0.664829,1.122063 -1.676131,2.453701 -2.671463,3.517659 -3.340106,4.305546 -3.688476,4.346284 -0.268058,0.03135 -0.549803,-0.264479 -2.55438,-2.681962 z"
       id="path867"
       inkscape:export-xdpi="20.286793"
       inkscape:export-ydpi="20.286793" />
  </g>
</svg>
