<?xml version="1.0" encoding="UTF-8" standalone="no"?>
<svg
   xmlns:dc="http://purl.org/dc/elements/1.1/"
   xmlns:cc="http://creativecommons.org/ns#"
   xmlns:rdf="http://www.w3.org/1999/02/22-rdf-syntax-ns#"
   xmlns:svg="http://www.w3.org/2000/svg"
   xmlns="http://www.w3.org/2000/svg"
   xmlns:sodipodi="http://sodipodi.sourceforge.net/DTD/sodipodi-0.dtd"
   xmlns:inkscape="http://www.inkscape.org/namespaces/inkscape"
   width="210mm"
   height="297mm"
   viewBox="0 0 210 297"
   version="1.1"
   id="svg8"
   inkscape:version="1.0.1 (3bc2e813f5, 2020-09-07)"
   sodipodi:docname="dl-dicom.svg">
  <defs
     id="defs2" />
  <sodipodi:namedview
     id="base"
     pagecolor="#ffffff"
     bordercolor="#666666"
     borderopacity="1.0"
     inkscape:pageopacity="0.0"
     inkscape:pageshadow="2"
     inkscape:zoom="0.7"
     inkscape:cx="246.47206"
     inkscape:cy="461.0705"
     inkscape:document-units="mm"
     inkscape:current-layer="layer1"
     inkscape:document-rotation="0"
     showgrid="false"
     inkscape:window-width="1920"
     inkscape:window-height="1017"
     inkscape:window-x="-8"
     inkscape:window-y="-8"
     inkscape:window-maximized="1" />
  <metadata
     id="metadata5">
    <rdf:RDF>
      <cc:Work
         rdf:about="">
        <dc:format>image/svg+xml</dc:format>
        <dc:type
           rdf:resource="http://purl.org/dc/dcmitype/StillImage" />
        <dc:title></dc:title>
      </cc:Work>
    </rdf:RDF>
  </metadata>
  <g
     inkscape:label="Layer 1"
     inkscape:groupmode="layer"
     id="layer1">
    <rect
       style="fill:none;stroke:none;stroke-width:0.352777;stroke-linecap:round;stroke-linejoin:round"
       id="rect871"
       width="160.2619"
       height="160.2619"
       x="29.482145"
       y="52.538689"
       inkscape:export-xdpi="20.286793"
       inkscape:export-ydpi="20.286793" />
    <path
       style="fill:#808080;stroke-width:0.264583"
       d="m 86.178567,209.30809 c 0,-0.29937 0.11564,-1.04351 0.25698,-1.65365 2.3639,-10.20504 2.73943,-12.28017 2.76236,-15.26456 0.0285,-3.71242 -0.30059,-4.52592 -2.16456,-5.35045 -1.02885,-0.4551 -1.56577,-0.51747 -3.36293,-0.39065 -1.17624,0.083 -3.01298,0.39323 -4.08165,0.68937 -3.16235,0.87633 -7.7161,1.20057 -12.85707,0.91545 -4.06414,-0.22539 -4.65094,-0.32013 -6.08464,-0.98229 -1.94065,-0.8963 -2.56713,-1.45349 -3.86129,-3.43421 -1.33085,-2.03687 -1.94556,-4.72262 -1.7233,-7.5293 0.44118,-5.57123 0.47386,-7.17585 0.16518,-8.11117 -0.17641,-0.5345 -1.07777,-1.75719 -2.01967,-2.73967 -2.54675,-2.65647 -2.82514,-4.48307 -1.18314,-7.76302 l 0.84317,-1.68427 -1.00566,-0.89101 c -0.55311,-0.49006 -1.34365,-1.19475 -1.75677,-1.56597 -1.57865,-1.41859 -1.68773,-3.55865 -0.30722,-6.02725 0.50933,-0.91075 0.92605,-1.71657 0.92605,-1.79071 0,-0.0741 -0.92274,-0.57461 -2.05052,-1.11216 -1.12779,-0.53756 -2.67835,-1.27646 -3.44568,-1.64202 -1.75144,-0.83437 -2.5035,-1.86121 -2.64792,-3.61538 -0.16263,-1.97534 0.62475,-3.88831 2.88555,-7.01059 1.0732,-1.48215 2.12987,-2.96195 2.34815,-3.28846 0.35227,-0.52693 1.62231,-2.23564 2.19573,-2.95412 2.04362,-2.56065 5.77007,-8.16977 5.97562,-8.99461 0.15739,-0.6316 0.20082,-2.89899 0.10749,-5.61181 -0.10088,-2.93228 -0.0399,-5.56837 0.17131,-7.40834 2.73081,-23.786661 22.7892,-42.787623 48.292123,-45.74626 4.46315,-0.517777 12.38792,-0.379759 16.27904,0.283516 8.05248,1.372612 15.20437,4.05619 21.67624,8.1335 13.60128,8.568871 22.40231,22.155778 24.11791,37.232894 0.38915,3.41992 0.19115,10.13724 -0.39438,13.37962 -0.46284,2.56297 -2.35473,9.54826 -2.93804,10.84791 -0.19594,0.43657 -0.66449,1.54179 -1.04122,2.45605 -2.98781,7.25082 -5.74961,12.30204 -10.94346,20.01512 -1.65903,2.46372 -3.25207,5.02356 -3.54009,5.68854 -2.164,4.99615 -3.6566,11.14123 -4.05319,16.68717 -0.33621,4.70156 0.62185,16.58834 1.88728,23.41562 0.51766,2.79292 2.22014,12.97751 2.22014,13.28136 0,0.0441 -13.87078,0.0801 -30.82396,0.0801 H 86.178567 Z"
       id="path851"
       inkscape:export-xdpi="20.286793"
       inkscape:export-ydpi="20.286793" />
    <path
       style="fill:#ececec;stroke-width:0.264583"
       d="m 119.34598,204.95823 c -2.31607,-0.29413 -3.33426,-0.30716 -4.98591,-0.0638 -2.13271,0.31418 -6.9115,0.17707 -10.22763,-0.29345 -2.57511,-0.36539 -2.52065,-0.24794 -3.00251,-6.47493 -0.039,-0.50353 0.14558,-0.51791 6.04522,-0.47073 5.67528,0.0454 6.11382,0.0834 6.50681,0.56343 0.61951,0.75681 8.93581,3.23671 12.14632,3.622 1.8651,0.22384 2.27057,0.42156 3.37099,1.64382 0.61712,0.68546 1.12314,1.32 1.12448,1.4101 0.009,0.5847 -6.5741,0.62284 -10.97777,0.0636 z m -1.96586,-8.48319 c -2.41131,-0.30428 -3.14716,-0.31581 -3.63097,-0.0569 -0.94559,0.50606 -10.07938,0.16307 -11.20867,-0.42091 -0.46614,-0.24105 -0.76787,-0.30937 -0.6705,-0.15183 0.23966,0.38778 -0.17988,0.36227 -0.72858,-0.0443 -0.49865,-0.36948 -0.91235,-2.35599 -1.03148,-4.95289 l -0.0785,-1.71175 6.08542,0.0785 c 5.52335,0.0713 6.12207,0.1233 6.48229,0.56338 0.65973,0.80599 7.90259,2.96561 12.43542,3.70789 2.09521,0.34311 2.7539,0.65942 2.53905,1.2193 -0.0725,0.18898 0.0106,0.28869 0.1864,0.22365 0.17449,-0.0645 0.57749,0.28535 0.89555,0.77756 l 0.5783,0.89491 -0.80981,0.16196 c -1.39663,0.27933 -7.88743,0.10971 -11.0439,-0.2886 z m 1.96586,-8.18297 c -0.58208,-0.0454 -2.39276,-0.22379 -4.02373,-0.39639 -2.09385,-0.22158 -3.06589,-0.23134 -3.3073,-0.0332 -0.46468,0.38139 -6.95274,0.42195 -9.6023,0.06 -1.40369,-0.19174 -2.2308,-0.43821 -2.455486,-0.73173 -0.239633,-0.31303 -0.317087,-1.29592 -0.264583,-3.35753 l 0.07423,-2.91493 5.754689,-0.0713 c 4.87773,-0.0605 5.75469,-0.013 5.75469,0.31149 0,0.47181 3.10643,1.6993 6.74688,2.66599 3.25105,0.8633 3.13118,0.83683 4.84189,1.06891 1.55339,0.21073 1.94385,0.49834 2.70676,1.99378 l 0.51979,1.01886 -0.85922,0.13104 c -1.31583,0.20067 -4.70231,0.34737 -5.88631,0.25499 z m -55.297917,-8.79758 c -3.45085,-1.6086 -5.43991,-6.3957 -4.68229,-11.26893 0.2863,-1.84154 0.26918,-2.04187 -0.24975,-2.92139 -0.68444,-1.16003 -0.58426,-3.26438 0.19648,-4.12709 1.07214,-1.1847 1.44462,-1.23457 9.94849,-1.3322 5.53991,-0.0636 8.216588,-0.18772 8.419278,-0.39042 0.219834,-0.21985 0.119993,-0.34165 -0.383667,-0.46806 -0.640985,-0.16088 -0.680832,-0.26814 -0.680832,-1.83271 0,-1.92556 0.259932,-2.29684 1.608022,-2.29684 1.250444,0 1.573254,0.4174 1.4967,1.93526 -0.03446,0.68329 0.05553,1.23076 0.20257,1.2323 0.145521,0.002 0.275786,-0.51678 0.289478,-1.15178 0.0345,-1.59992 0.245983,-2.01578 1.025136,-2.01578 0.805408,0 0.799106,-0.0851 0.12169,1.64385 -0.595164,1.51906 -1.776666,3.51046 -2.945662,4.96487 -0.406781,0.5061 -0.7396,1.1166 -0.7396,1.35667 0,0.60575 0.673166,1.10462 1.244073,0.92196 0.43175,-0.13814 2.714435,-3.56474 3.452863,-5.18318 1.272262,-2.78847 2.150626,-5.70134 2.872222,-9.525 0.369287,-1.95681 0.465873,-3.70502 0.43607,-7.89285 -0.02106,-2.95862 0.06686,-5.65586 0.195369,-5.99387 0.289284,-0.76087 1.295595,-1.7237 1.801553,-1.7237 0.207552,0 1.298223,0.89613 2.42371,1.99139 2.195142,2.1362 3.122489,2.58415 4.640774,2.24172 1.166418,-0.26307 1.746692,-0.75741 2.408192,-2.05156 2.809904,-5.49727 4.258398,-6.93318 6.546298,-6.48945 1.17691,0.22826 2.72507,1.91378 2.94309,3.20421 0.16865,0.99824 -0.19389,2.8633 -0.62599,3.22036 -0.69301,0.57265 -1.70187,3.55648 -2.63901,7.80521 -0.76315,3.45992 -1.84021,11.26141 -2.28298,16.53646 -0.22655,2.69901 -0.67886,5.02708 -0.97669,5.02708 -0.135174,0 -0.182952,0.10164 -0.10617,0.22588 0.2338,0.37831 -1.284925,2.52415 -2.42625,3.42809 -1.439371,1.14001 -2.647879,1.61309 -4.62905,1.81208 -0.908619,0.0913 -2.187813,0.39889 -2.842657,0.6836 -0.654844,0.28472 -1.42875,0.62158 -1.719792,0.74859 -0.291041,0.127 -1.18401,0.47774 -1.984375,0.77941 -0.800364,0.30168 -1.812396,0.70936 -2.248958,0.90597 -0.436563,0.19661 -1.743253,0.73409 -2.903757,1.19441 -1.160503,0.46031 -2.47019,0.9934 -2.910417,1.18463 -0.779643,0.33867 -2.266125,0.94904 -7.15041,2.93603 -2.967011,1.20703 -5.502091,1.45003 -7.143751,0.68478 z m 53.235937,0.11156 c -2.00721,-0.18824 -3.71895,-0.41173 -3.80386,-0.49663 -0.0849,-0.0849 -0.49055,0.0195 -0.90144,0.23194 -1.2622,0.65272 -11.93262,0.42775 -12.626571,-0.26621 -0.191227,-0.19123 0.422441,-5.25719 0.737081,-6.08476 0.22625,-0.59506 0.25763,-0.5983 5.93836,-0.61353 5.21797,-0.014 5.73271,0.0254 5.96344,0.45652 0.41673,0.77867 9.39393,3.44254 11.64977,3.45692 1.15296,0.007 1.28892,0.10394 2.3154,1.64486 l 0.8328,1.25018 -0.97879,0.25239 c -1.74808,0.45077 -5.39682,0.51806 -9.12619,0.16832 z m 8.1474,-2.5242 c -0.0899,-0.14552 -0.30532,-0.26276 -0.47864,-0.26053 -0.18933,0.002 -0.1567,0.10642 0.0818,0.26053 0.50829,0.32849 0.59989,0.32849 0.39687,0 z m -21.50144,-6.07706 c -2.39553,-0.27345 -2.70794,-0.39309 -2.70794,-1.03701 0,-0.52251 0.69289,-3.53321 0.9811,-4.26301 0.0862,-0.21828 0.19977,-0.635 0.25236,-0.92604 0.22011,-1.21809 0.0877,-1.19063 5.73884,-1.19063 5.01867,0 5.41041,0.0344 5.52848,0.48593 0.11009,0.42102 1.51475,1.08851 3.11047,1.4781 0.21873,0.0534 1.13033,0.33761 2.02577,0.63157 0.89544,0.29395 2.61947,0.73667 3.83118,0.98381 3.1065,0.63361 3.30949,0.74308 3.93854,2.12392 0.30752,0.67504 0.5209,1.26556 0.47419,1.31227 -0.0467,0.0467 -1.09676,0.22483 -2.33344,0.39581 -2.22749,0.30797 -3.5461,0.2592 -8.5234,-0.31525 -2.04435,-0.23595 -2.65409,-0.22749 -2.97797,0.0413 -0.50294,0.4174 -6.54497,0.59807 -9.33818,0.27922 z m 18.06186,-8.52453 c -1.74625,-0.10794 -4.14845,-0.35727 -5.33822,-0.55406 -1.9117,-0.31619 -2.25009,-0.3096 -2.91042,0.0567 -0.58909,0.32682 -1.62308,0.41454 -4.88661,0.41454 -3.76725,0 -4.19221,-0.0476 -4.72672,-0.52917 -1.0221,-0.92092 -1.1051,-1.57123 -0.51778,-4.05708 0.29796,-1.2611 0.61221,-2.47151 0.69833,-2.68979 0.0861,-0.21828 0.19237,-0.635 0.2361,-0.92605 0.083,-0.55229 0.58355,-2.82903 1.37153,-6.23797 0.71471,-3.09196 0.76761,-3.13725 4.03524,-3.45385 5.05706,-0.48998 5.0014,-0.50548 5.22221,1.45353 0.12782,1.134 0.17412,1.19268 0.83654,1.06019 0.6848,-0.13696 0.8381,-0.052 3.89502,2.15821 1.47435,1.06599 3.58286,1.53143 6.87828,1.51836 1.7633,-0.007 3.32519,0.0636 3.47087,0.15691 0.14567,0.0933 0.51075,0.6816 0.81128,1.30735 l 0.54642,1.13772 -0.5777,0.21882 c -0.31774,0.12036 -1.8981,0.30476 -3.51191,0.40978 -4.24634,0.27636 -6.15053,-0.27619 -9.50121,-2.75703 -0.58209,-0.43097 -1.41552,-0.81895 -1.85209,-0.86217 l -0.79375,-0.0786 v 2.36984 2.36984 l 1.98438,0.63375 c 3.85415,1.2309 7.40376,2.12007 9.73545,2.4387 l 2.35898,0.32238 0.96424,1.78523 c 0.53034,0.98187 0.96425,1.85012 0.96425,1.92944 0,0.12738 -1.87867,0.3213 -5.15938,0.53255 -0.58208,0.0375 -2.48708,-0.0202 -4.23333,-0.12811 z m -62.094767,-3.45622 c -0.52122,-0.41469 -0.84881,-3.06038 -0.43994,-3.55303 0.41912,-0.50501 2.24549,-0.45353 2.44598,0.0689 0.0883,0.23018 0.1606,1.11042 0.1606,1.95607 0,1.15797 -0.10332,1.5772 -0.41852,1.69815 -0.65657,0.25195 -1.2958,0.18974 -1.74812,-0.17013 z m 2.97956,-0.043 c -0.18657,-0.2248 -0.27857,-1.04209 -0.23084,-2.05053 l 0.0794,-1.67674 h 1.32292 1.32292 l 0.0803,1.71298 c 0.065,1.38554 -0.008,1.77751 -0.3813,2.05052 -0.61401,0.44897 -1.80706,0.42926 -2.19338,-0.0362 z m 3.33222,-0.0672 c -0.097,-0.097 -0.17639,-0.92819 -0.17639,-1.84704 0,-1.53875 0.0497,-1.68313 0.62948,-1.82865 0.34622,-0.0869 0.9713,-0.11893 1.38907,-0.0712 0.75018,0.0857 0.76053,0.11052 0.83731,2.00504 l 0.0777,1.91823 h -1.29041 c -0.70973,0 -1.36979,-0.0794 -1.4668,-0.17639 z m 3.71636,0.0122 c -0.103722,-0.10372 -0.188588,-1.0084 -0.188588,-2.0104 v -1.82181 l 1.389063,0.08 1.389063,0.08 v 1.85208 1.85208 l -1.200476,0.0784 c -0.660262,0.0431 -1.285341,-0.007 -1.389062,-0.11025 z m 3.439583,0 c -0.103722,-0.10372 -0.188587,-0.99991 -0.188587,-1.99153 0,-1.66023 0.04712,-1.81179 0.595312,-1.91466 1.993094,-0.37401 2.369138,0.002 2.262183,2.26135 l -0.07937,1.67674 -1.200475,0.0784 c -0.660263,0.0431 -1.285341,-0.007 -1.389063,-0.11025 z m -14.079693,-4.59908 c -0.0902,-0.14595 -0.0907,-0.83056 -10e-4,-1.52136 0.32034,-2.47089 0.30583,-2.44661 1.4619,-2.44661 0.57931,0 1.06618,0.0893 1.08193,0.19843 0.14144,0.97997 0.19308,2.96031 0.0897,3.43959 -0.10963,0.50825 -0.29952,0.59531 -1.29838,0.59531 -0.64348,0 -1.24377,-0.11941 -1.33397,-0.26536 z m 3.62527,-0.0521 c -0.49849,-0.49849 -0.41622,-3.55675 0.10102,-3.75523 0.82763,-0.3176 2.16733,-0.16938 2.3313,0.25791 0.30894,0.80508 0.16678,3.05268 -0.21738,3.43684 -0.46005,0.46006 -1.77934,0.49608 -2.21494,0.0605 z m 3.39069,-0.0489 c -0.14773,-0.14774 -0.2686,-1.01068 -0.2686,-1.91766 0,-1.84459 0.1862,-2.02459 1.97006,-1.90446 l 0.96132,0.0647 -0.0766,1.86345 -0.0766,1.86344 -1.12045,0.14955 c -0.6202,0.0828 -1.24038,0.0296 -1.38906,-0.11906 z m 3.611952,-0.0746 c -0.09701,-0.097 -0.17639,-0.97673 -0.17639,-1.95493 v -1.77854 l 0.890525,-0.16707 c 1.155774,-0.21682 1.748218,0.0261 1.784315,0.7318 0.01595,0.31185 0.0683,0.98372 0.116322,1.49304 0.148481,1.57477 -0.04762,1.85209 -1.309685,1.85209 -0.620784,0 -1.208075,-0.0794 -1.305087,-0.17639 z m 3.373562,-0.18221 c -0.07568,-0.19723 -0.101711,-1.11996 -0.05784,-2.05052 0.07753,-1.64464 0.100994,-1.69435 0.839337,-1.77873 0.417767,-0.0477 1.042845,-0.0157 1.389063,0.0712 0.586557,0.14721 0.629489,0.28203 0.629489,1.97672 0,2.00466 -0.110607,2.13994 -1.749735,2.13994 -0.52392,0 -0.971322,-0.15276 -1.050314,-0.3586 z m 3.595328,-0.16772 c -0.146362,-0.27347 -0.266113,-1.15763 -0.266113,-1.96479 0,-1.32487 0.06121,-1.48292 0.629489,-1.62555 0.346218,-0.0869 0.971296,-0.11893 1.389063,-0.0712 0.726305,0.083 0.76786,0.16196 0.94878,1.8026 0.105243,0.95438 0.08323,1.82176 -0.04959,1.95459 -0.131342,0.13134 -0.721812,0.27543 -1.312159,0.32019 -0.832744,0.0631 -1.133009,-0.0301 -1.339466,-0.41585 z m 3.525168,0.0333 c -0.147005,-0.23816 -0.212434,-1.17716 -0.145399,-2.08666 l 0.121886,-1.65365 h 1.299422 c 0.94221,0 1.343678,0.11534 1.460425,0.41958 0.242867,0.6329 -0.765587,3.54543 -1.235895,3.56942 -0.21831,0.0111 -0.585078,0.0572 -0.815041,0.10229 -0.229962,0.0451 -0.53839,-0.11282 -0.685398,-0.35098 z m -20.38868,-4.39695 c -1.57813,-0.68644 -1.92133,-1.66975 -1.92244,-5.50806 -0.001,-4.25214 0.17595,-4.65704 2.52355,-5.76622 2.09024,-0.98759 2.94044,-2.03027 3.31716,-4.06813 0.52081,-2.81733 0.0523,-3.80027 -4.50124,-9.44288 -0.6645,-0.82342 -1.47268,-1.83545 -1.79597,-2.24895 -0.85268,-1.09062 -1.00905,-2.63722 -0.44693,-4.42047 0.25845,-0.8199 0.56722,-1.49073 0.68617,-1.49073 0.11895,0 0.21627,-0.12271 0.21627,-0.2727 0,-0.14998 0.47021,-1.10248 1.04491,-2.11667 0.5747,-1.01418 1.00255,-1.84396 0.95077,-1.84396 -0.0518,0 0.44071,-0.98227 1.09441,-2.18282 1.10274,-2.02522 1.16461,-2.24011 0.85688,-2.97656 -0.49314,-1.18016 -0.61564,-3.93785 -0.2076,-4.67346 0.1886,-0.34001 0.35275,-0.67774 0.36477,-0.7505 0.0212,-0.12836 0.33897,-0.75017 2.36043,-4.619044 0.53475,-1.02347 1.14025,-2.72702 1.36359,-3.83646 0.91115,-4.526119 3.494767,-10.597169 5.824122,-13.6857 0.349366,-0.463233 0.635214,-0.976276 0.635214,-1.140095 0,-0.163817 0.119062,-0.224266 0.264583,-0.134329 0.145521,0.08994 0.264584,0.02088 0.264584,-0.153479 0,-0.361048 2.60014,-3.416089 3.922728,-4.609021 0.484013,-0.436563 1.299147,-1.177496 1.811414,-1.646518 1.915131,-1.753468 6.267408,-4.244542 10.008567,-5.728518 1.421169,-0.563724 4.429535,-1.326418 7.805208,-1.978811 2.688014,-0.519494 3.292798,-0.60522 7.276047,-1.031349 3.13755,-0.335657 17.46195,-0.229729 20.37291,0.150656 6.10889,0.798269 10.74933,1.876564 14.13694,3.284992 2.2818,0.948678 6.19384,3.03535 7.16202,3.820207 0.21828,0.176949 1.11125,0.854364 1.98438,1.505366 1.65025,1.230423 4.77984,4.356883 6.67024,6.66357 2.34713,2.86398 6.14583,9.822612 5.72971,10.495921 -0.0982,0.158924 -0.0618,0.216807 0.0808,0.128627 0.31913,-0.197234 2.03885,5.257581 1.82953,5.803081 -0.0836,0.21793 -0.0343,0.31744 0.11251,0.22674 0.14385,-0.0889 0.28019,0.11326 0.30297,0.44927 0.11752,1.73364 0.15675,2.04061 0.31281,2.44728 0.0932,0.24274 0.35336,3.413974 0.57826,7.047194 0.31185,5.03803 0.34365,7.24159 0.134,9.28456 -0.38988,3.79929 -0.79202,6.16005 -1.06581,6.25681 -0.12954,0.0458 -0.17165,0.24972 -0.0936,0.45318 0.15906,0.41452 -0.60966,2.96528 -1.0666,3.53914 -0.16264,0.20427 -0.25672,0.44239 -0.20905,0.52917 0.18083,0.32919 -0.57477,2.11699 -0.82846,1.96021 -0.14899,-0.0921 -0.18445,-0.0325 -0.0806,0.13557 0.17323,0.2803 -2.17446,4.96763 -2.84352,5.6773 -0.16707,0.1772 -0.61571,0.79844 -0.99697,1.38052 -0.38127,0.58209 -1.06377,1.47506 -1.51667,1.98438 -0.45289,0.50932 -0.82534,1.02808 -0.82767,1.15279 -0.002,0.12471 -0.189,0.15584 -0.41484,0.0692 -0.22584,-0.0867 -0.34687,-0.0544 -0.26897,0.0716 0.46799,0.75722 -7.5583,7.15443 -8.5155,6.78712 -0.19657,-0.0754 -0.29652,-0.0386 -0.22212,0.0817 0.11567,0.18717 -1.8129,1.47013 -2.01879,1.34298 -0.0404,-0.0249 -0.60916,0.20428 -1.264,0.50935 -3.21868,1.49945 -9.59678,2.56197 -14.23252,2.37097 -2.36365,-0.0974 -3.08626,-0.23365 -4.31066,-0.81289 -1.69462,-0.80168 -3.3591,-2.48692 -4.31032,-4.36405 -1.03398,-2.04046 -1.40131,-2.18172 -5.67339,-2.18172 -2.02106,0 -4.40742,-0.0766 -5.30302,-0.1702 l -1.62837,-0.17019 0.10137,-0.82199 c 0.15664,-1.27018 0.47272,-2.36994 0.80656,-2.80637 1.12816,-1.47483 1.60586,-2.83333 1.59352,-4.53163 -0.016,-2.20414 -0.64566,-3.32087 -2.59114,-4.5956 -1.11246,-0.72891 -3.45054,-0.65783 -4.84973,0.14744 -1.179302,0.67872 -3.310661,3.55977 -4.445462,6.00912 -0.684837,1.47815 -1.682422,2.3096 -2.470846,2.05936 -0.279762,-0.0888 -1.082193,-0.8428 -1.78318,-1.67558 -2.514465,-2.98721 -3.982085,-3.64237 -5.709809,-2.54892 -1.650326,1.04447 -1.813844,1.74683 -1.813844,7.79113 0,5.76356 -0.337727,8.60069 -1.070496,8.99286 -0.457684,0.24494 -4.983858,0.42676 -15.99513,0.64252 -5.08336,0.0996 -6.52048,0.0503 -7.20469,-0.24734 z m 13.732295,-22.53541 c 0.266121,-0.24083 0.483854,-0.54502 0.483854,-0.67597 0,-0.13095 0.25069,-0.79711 0.557091,-1.48035 2.654216,-5.91862 2.91006,-6.63827 2.914224,-8.19731 0.0051,-1.90751 -0.542192,-3.2171 -1.719823,-4.11533 -0.507339,-0.38696 -1.012002,-0.70357 -1.121474,-0.70357 -0.109471,0 -0.444836,-0.22164 -0.745257,-0.49253 -1.193631,-1.07631 -5.40833,-3.7408 -5.9172,-3.7408 -1.07739,0 -1.22297,1.36396 -0.8381,7.85217 0.29717,5.00973 0.43179,6.05113 0.89807,6.9475 0.74759,1.43713 4.195551,4.98566 4.893303,5.03603 0.0613,0.004 0.329192,-0.189 0.595312,-0.42984 z"
       id="path849"
       inkscape:export-xdpi="20.286793"
       inkscape:export-ydpi="20.286793" />
    <path
       style="fill:#000000;stroke-width:0.513395"
       d="m 58.223151,204.50035 c -0.920278,-0.56109 -2.132302,-1.77312 -2.693413,-2.6934 -0.967621,-1.58707 -1.020272,-2.61833 -1.022091,-20.02711 l -0.0015,-18.35386 H 62.207081 69.908 v 13.34825 13.34829 h 40.30154 40.30152 v -13.34829 -13.34825 h 7.70094 7.70093 v 18.4063 c 0,18.28132 -0.008,18.41815 -1.16536,20.15078 -2.51851,3.76996 1.04444,3.53984 -54.79472,3.53861 -49.043275,-0.001 -50.089902,-0.0217 -51.729273,-1.02132 z m 41.162647,-54.77757 c -5.57455,-6.72279 -11.02223,-13.29497 -12.105949,-14.6048 -3.230352,-3.90437 -3.068685,-4.0359 4.960439,-4.0359 h 6.93084 V 111.1225 c 0,-16.333084 0.12859,-20.06624 0.70769,-20.546858 0.491882,-0.408239 3.818472,-0.544794 10.909632,-0.447909 l 10.20197,0.13936 0.13421,19.879197 0.1342,19.8792 6.79013,0.14315 c 5.95425,0.12556 6.81105,0.25224 6.96004,1.02908 0.10024,0.52269 -2.99073,5.0476 -7.54007,11.03797 -12.01757,15.82418 -15.02546,19.36849 -16.5926,19.55175 -1.20586,0.14103 -2.47329,-1.18976 -11.490872,-12.0648 z"
       id="path867"
       inkscape:export-xdpi="20.286793"
       inkscape:export-ydpi="20.286793" />
  </g>
</svg>
